<?xml version="1.0" encoding="UTF-8"?>
<svg width="64" height="64" viewBox="0 0 64 64" fill="none" xmlns="http://www.w3.org/2000/svg">
  <!-- Rocket body -->
  <path d="M32 8C24 8 16 16 16 32V40L24 48H40L48 40V32C48 16 40 8 32 8Z" fill="#4f46e5" stroke="#1e293b" stroke-width="2"/>

  <!-- Rocket window -->
  <circle cx="32" cy="24" r="6" fill="#8b5cf6" stroke="#1e293b" stroke-width="1"/>

  <!-- Rocket fins -->
  <path d="M16 40L8 48V40L16 32V40Z" fill="#4f46e5" stroke="#1e293b" stroke-width="2"/>
  <path d="M48 40L56 48V40L48 32V40Z" fill="#4f46e5" stroke="#1e293b" stroke-width="2"/>

  <!-- Rocket bottom -->
  <path d="M24 48L24 56H40L40 48H24Z" fill="#4f46e5" stroke="#1e293b" stroke-width="2"/>

  <!-- Animated flame -->
  <g class="flame">
    <path d="M28 56L28 62C28 63.1046 29.7909 64 32 64C34.2091 64 36 63.1046 36 62L36 56L28 56Z" fill="url(#fireGradient)"/>
    <!-- Flame particles -->
    <circle class="particle particle1" cx="30" cy="60" r="1" fill="#fcd34d" />
    <circle class="particle particle2" cx="34" cy="61" r="0.8" fill="#fcd34d" />
    <circle class="particle particle3" cx="32" cy="62" r="1.2" fill="#fcd34d" />
  </g>

  <!-- Gradients -->
  <defs>
    <linearGradient id="fireGradient" x1="32" y1="56" x2="32" y2="64" gradientUnits="userSpaceOnUse">
      <stop offset="0" stop-color="#f59e0b"/>
      <stop offset="0.5" stop-color="#ef4444"/>
      <stop offset="1" stop-color="#f97316"/>
    </linearGradient>
  </defs>

  <!-- Animation -->
  <style>
    .flame {
      animation: flameAnimation 0.8s ease-in-out infinite alternate;
      transform-origin: center bottom;
    }

    .particle {
      opacity: 0;
    }

    .particle1 {
      animation: particleAnimation 1.5s ease-in-out infinite;
      animation-delay: 0.1s;
    }

    .particle2 {
      animation: particleAnimation 1.5s ease-in-out infinite;
      animation-delay: 0.3s;
    }

    .particle3 {
      animation: particleAnimation 1.5s ease-in-out infinite;
      animation-delay: 0.5s;
    }

    @keyframes flameAnimation {
      0% {
        transform: scaleY(0.8) scaleX(0.9);
        opacity: 0.8;
      }
      100% {
        transform: scaleY(1.2) scaleX(1.1);
        opacity: 1;
      }
    }

    @keyframes particleAnimation {
      0% {
        transform: translate(0, 0);
        opacity: 0;
      }
      20% {
        opacity: 0.8;
      }
      100% {
        transform: translate(0, -10px);
        opacity: 0;
      }
    }
  </style>
</svg>
